<?xml version="1.0" encoding="utf-8"?>
<!-- Generator: Adobe Illustrator 24.0.0, SVG Export Plug-In . SVG Version: 6.00 Build 0)  -->
<svg version="1.1" id="Layer_1" xmlns="http://www.w3.org/2000/svg" xmlns:xlink="http://www.w3.org/1999/xlink" x="0px" y="0px"
	 viewBox="0 0 307.2 512.1" style="enable-background:new 0 0 307.2 512.1;" xml:space="preserve">
<style type="text/css">
	.st0{fill:#262626;}
</style>
<title>middle-finger</title>
<path class="st0" d="M307.2,192.1L307.2,192.1v-3.4c0-0.6-0.1-1.3-0.4-1.9c-0.4-2.7-1-5.4-2-8.1c-6.9-20.1-28.8-30.7-48.9-23.8
	c-3.2,1.1-6.3,2.6-9.1,4.6c-0.4-2.2-1-4.3-1.7-6.3c-5.1-15.5-19.7-26-36.1-25.9c-7.6,0-15.1,2.4-21.3,6.8V39.4
	c0-18.8-12.8-35-29.9-38.4c-12-2.6-23,0-32.4,7.7s-14.5,17.9-14.5,29.9v105.8c-1.7-1.7-3.4-3.4-6-4.3c-11.9-6-24.8-4.3-35.8,3.4
	s-17.9,21.3-17.9,36.7v56.3l-12.8,7.7c-0.3,0.1-0.5,0.2-0.8,0.4c-25.9,12-37.6,32.4-37.6,67v25.6C0,406.3,45.2,439.6,59.7,449v24.8
	c-0.1,21.1,17,38.3,38.1,38.4c0.1,0,0.2,0,0.3,0h149.3c19.6,0,34.1-20.5,34.1-38.4v-27.4c25.6-35,25.6-41.8,25.6-110.1v-93l0,0
	V192.1z M187.7,166.5c-0.3-11.8,9.1-21.5,20.9-21.8s21.5,9.1,21.8,20.9c0,0.3,0,0.6,0,0.9v93.9c0.3,11.8-9.1,21.5-20.9,21.8
	s-21.5-9.1-21.8-20.9c0-0.3,0-0.6,0-0.9V166.5z M247.5,192.1c-0.1-11.7,9.2-21.2,20.9-21.3c0.1,0,0.3,0,0.4,0c0.7,0,1.4,0,2.1,0.1
	c3.8,0.4,7.5,1.8,10.6,4l0.6,0.5l0.5,0.5c4.8,4.1,7.5,10,7.5,16.3v51.2c0,11.8-9.5,21.3-21.3,21.3c-11.8,0-21.3-9.5-21.3-21.3l0,0
	L247.5,192.1L247.5,192.1z M68.3,180.1c-0.1-9,4-17.5,11.1-23c2.9-2.3,6.5-3.5,10.2-3.4c2.4,0.1,4.7,0.6,6.8,1.7
	c8.5,4.3,14.5,14.5,14.5,23.9v8.5c-4.8,2.7-10,7-15.4,13.6c-6.3,7.8-15.7,16.1-27.3,24.4V180.1z M268.8,435.3H256
	c-5.1,0-8.5,3.4-8.5,8.5s3.4,8.5,8.5,8.5h8.5v21.3c0,9.4-7.7,21.3-17.1,21.3H98.1c-11.7,0.1-21.2-9.3-21.3-20.9c0-0.1,0-0.3,0-0.4
	v-17.4c8.8,3,18,4.5,27.3,4.6c6.8,0,14.5-0.9,20.5-3.4c12.8-4.3,22.2-14.5,28.2-27.3c1.7-4.3,0-9.4-4.3-11.1s-9.4,0-11.1,4.3
	c-4.3,8.5-10.2,14.5-18.8,17.9c-14.6,5.7-32.2,1.4-44.9-4.2c-0.4-0.3-0.8-0.6-1.2-0.9c-2.6-0.9-55.5-29-55.5-99v-25.6
	c0-28.2,8.5-43.5,29-52c0-0.2,0-0.3,0.1-0.5c0.2-0.1,0.5-0.2,0.7-0.4c27.3-14.5,50.3-31.6,62.3-46.9c6-6.8,14.5-14.5,22.2-9.4
	c8.5,6,12.8,23,7.7,32.4c-15.4,26.5-53.8,57.2-74.2,62.3c-4.3,0.9-6.8,6-6,10.2c1.7,3.4,5.1,6,8.5,6h1.7
	c11.3-3.2,26.8-12.1,41.8-23.9v9.4c0,5.1,3.4,8.5,8.5,8.5s8.5-3.4,8.5-8.5v-24.2c10.3-9.9,19.4-20.7,25.6-31.3
	c9.4-17.1,3.4-43.5-12.8-54.6c-3.8-2.6-8.2-4.2-12.8-4.7V38.5c-0.2-6.6,2.6-12.9,7.7-17.1c4.9-4.3,11.6-6,17.9-4.3
	c10.1,2.6,17.1,11.8,17.1,22.2v221c0,21.2,17.2,38.4,38.4,38.4c16.1,0,30.5-10,36.1-25.2c13.1,10.1,31.2,10.8,45,1.7v61.9
	C290.1,403,290.1,406.1,268.8,435.3z"/>
</svg>
